<?xml version="1.0" encoding="UTF-8" standalone="no"?>
<svg width="14px" height="139px" viewBox="0 0 14 139" version="1.1" xmlns="http://www.w3.org/2000/svg" xmlns:xlink="http://www.w3.org/1999/xlink">
    <!-- Generator: sketchtool 39.1 (31720) - http://www.bohemiancoding.com/sketch -->
    <title>D7C4BB4B-93B8-49DD-AC6E-7846EC76E73A</title>
    <desc>Created with sketchtool.</desc>
    <defs></defs>
    <g id="mockup_element" stroke="none" stroke-width="1" fill="none" fill-rule="evenodd">
        <g id="AAM_mockup_Step1" transform="translate(-74.000000, -836.000000)">
            <g id="img_step1_Pen" transform="translate(74.000000, 836.000000)">
                <polygon id="Rectangle-10" fill="#D2E9FE" points="0 11 12 11 12 123 6 139 0 123"></polygon>
                <polygon id="Rectangle-10" fill="#C0E1FF" points="6 11 12 11 12 123 6 139"></polygon>
                <rect id="Rectangle-10-Copy" fill="#7CC0FF" x="0" y="1.42108547e-14" width="12" height="18" rx="6"></rect>
                <path d="M6,1.42108547e-14 C2.69303423,1.42108547e-14 0,2.68348852 0,5.99373937 L0,18 L3,18 L6,18 L6,1.46549439e-14 Z" id="Combined-Shape" fill="#8FC9FF"></path>
                <rect id="Rectangle-9" fill="#68B4FA" x="12" y="11" width="2" height="32"></rect>
                <path d="M9,132 L6,139 L3,132 L9,132 Z" id="Combined-Shape" fill="#9FB9F7"></path>
            </g>
        </g>
    </g>
</svg>