<?xml version="1.0" encoding="UTF-8" standalone="no"?>
<svg width="299px" height="405px" viewBox="0 0 299 405" version="1.1" xmlns="http://www.w3.org/2000/svg" xmlns:xlink="http://www.w3.org/1999/xlink">
    <!-- Generator: sketchtool 39.1 (31720) - http://www.bohemiancoding.com/sketch -->
    <title>0AFC319E-39F9-4DDA-BC68-4E88599EB6D7</title>
    <desc>Created with sketchtool.</desc>
    <defs>
        <rect id="path-1" x="162" y="20" width="117" height="208"></rect>
        <mask id="mask-2" maskContentUnits="userSpaceOnUse" maskUnits="objectBoundingBox" x="0" y="0" width="117" height="208" fill="white">
            <use xlink:href="#path-1"></use>
        </mask>
    </defs>
    <g id="mockup_element" stroke="none" stroke-width="1" fill="none" fill-rule="evenodd">
        <g id="AAM_mockup_Step1" transform="translate(-53.000000, -1074.000000)">
            <g id="img_step1_BottomLeftPaper" transform="translate(53.000000, 1074.000000)">
                <rect id="Rectangle-3" fill="#FFF5EA" x="-5.32907052e-14" y="-2.84217094e-14" width="299" height="405"></rect>
                <use id="Rectangle-3" stroke="#E8E8E8" mask="url(#mask-2)" stroke-width="4" xlink:href="#path-1"></use>
                <path d="M256.361647,112.906745 C248.425515,120.859251 232.629796,127.789069 227.123455,125.594575 C220.708785,123.038078 216.053865,113.527393 219.810874,107.324025 C226.11738,96.9110678 236.689916,91.2440902 248.425515,88.8966883 C259.141925,86.7531485 277.658194,91.4665433 269.409286,106.536547 C261.419766,121.132674 250.505122,131.896719 234.833001,137.406744" id="Path-6-Copy" stroke="#F29C9C" stroke-width="2" transform="translate(244.966291, 112.906744) rotate(337.000000) translate(-244.966291, -112.906744) "></path>
                <circle id="Oval-5" fill="#E8EFF2" transform="translate(90.741076, 139.741076) rotate(19.000000) translate(-90.741076, -139.741076) " cx="90.7410763" cy="139.741076" r="47"></circle>
                <g id="Group-15" transform="translate(22.000000, 248.000000)">
                    <g id="Group-2-Copy" transform="translate(188.000000, 0.000000)">
                        <rect id="Rectangle-4" fill="#E8EFF2" x="-9.23705556e-14" y="23" width="67.4887689" height="7"></rect>
                        <rect id="Rectangle-4-Copy-8" fill="#D7D7D7" x="-2.27373675e-13" y="0" width="67.4887689" height="7"></rect>
                        <rect id="Rectangle-4-Copy" fill="#E8EFF2" x="6.75015599e-13" y="36" width="67.4887689" height="7"></rect>
                        <rect id="Rectangle-4-Copy-2" fill="#E9F0F3" x="-1.24344979e-12" y="49" width="67.4887689" height="7"></rect>
                        <rect id="Rectangle-4-Copy-3" fill="#E9F0F3" x="1.1937118e-12" y="62" width="67.4887689" height="7"></rect>
                        <rect id="Rectangle-4-Copy-4" fill="#E9F0F3" x="6.1817218e-13" y="75" width="67.4887689" height="7"></rect>
                        <rect id="Rectangle-4-Copy-5" fill="#E9F0F3" x="-2.27373675e-13" y="88" width="67.4887689" height="7"></rect>
                        <rect id="Rectangle-4-Copy-6" fill="#E9F0F3" x="2.84217094e-14" y="101" width="67.4887689" height="7"></rect>
                        <rect id="Rectangle-4-Copy-7" fill="#E9F0F3" x="-1.16529009e-12" y="114" width="67.4887689" height="7"></rect>
                    </g>
                    <g id="Group-2-Copy-2" transform="translate(94.000000, 0.000000)">
                        <rect id="Rectangle-4" fill="#E8EFF2" x="-9.23705556e-14" y="23" width="67.4887689" height="7"></rect>
                        <rect id="Rectangle-4-Copy-8" fill="#D7D7D7" x="-2.27373675e-13" y="0" width="67.4887689" height="7"></rect>
                        <rect id="Rectangle-4-Copy" fill="#E8EFF2" x="6.75015599e-13" y="36" width="67.4887689" height="7"></rect>
                        <rect id="Rectangle-4-Copy-2" fill="#E9F0F3" x="-1.24344979e-12" y="49" width="67.4887689" height="7"></rect>
                        <rect id="Rectangle-4-Copy-3" fill="#E9F0F3" x="1.1937118e-12" y="62" width="67.4887689" height="7"></rect>
                        <rect id="Rectangle-4-Copy-4" fill="#E9F0F3" x="6.1817218e-13" y="75" width="67.4887689" height="7"></rect>
                        <rect id="Rectangle-4-Copy-5" fill="#E9F0F3" x="-2.27373675e-13" y="88" width="67.4887689" height="7"></rect>
                        <rect id="Rectangle-4-Copy-6" fill="#E9F0F3" x="2.84217094e-14" y="101" width="67.4887689" height="7"></rect>
                        <rect id="Rectangle-4-Copy-7" fill="#E9F0F3" x="-1.16529009e-12" y="114" width="67.4887689" height="7"></rect>
                    </g>
                    <g id="Group-2-Copy-3">
                        <rect id="Rectangle-4" fill="#E8EFF2" x="-9.23705556e-14" y="23" width="67.4887689" height="7"></rect>
                        <rect id="Rectangle-4-Copy-8" fill="#D7D7D7" x="-2.27373675e-13" y="0" width="67.4887689" height="7"></rect>
                        <rect id="Rectangle-4-Copy" fill="#E8EFF2" x="6.75015599e-13" y="36" width="67.4887689" height="7"></rect>
                        <rect id="Rectangle-4-Copy-2" fill="#E9F0F3" x="-1.24344979e-12" y="49" width="67.4887689" height="7"></rect>
                        <rect id="Rectangle-4-Copy-3" fill="#E9F0F3" x="1.1937118e-12" y="62" width="67.4887689" height="7"></rect>
                        <rect id="Rectangle-4-Copy-4" fill="#E9F0F3" x="6.1817218e-13" y="75" width="67.4887689" height="7"></rect>
                        <rect id="Rectangle-4-Copy-5" fill="#E9F0F3" x="-2.27373675e-13" y="88" width="67.4887689" height="7"></rect>
                        <rect id="Rectangle-4-Copy-6" fill="#E9F0F3" x="2.84217094e-14" y="101" width="67.4887689" height="7"></rect>
                        <rect id="Rectangle-4-Copy-7" fill="#E9F0F3" x="-1.16529009e-12" y="114" width="67.4887689" height="7"></rect>
                    </g>
                </g>
                <path d="" id="Path-24" stroke="#979797"></path>
                <g id="Group-16" transform="translate(66.000000, 284.000000)" stroke="#F29C9C" stroke-width="2">
                    <path d="M0.403217245,11.8582317 C2.7895625,10.0025166 4.97694821,7.85777767 7.562253,6.29108649 C36.0693025,-10.9841466 16.3251905,18.1946488 15.1147898,22.5900779 C14.4926675,24.8492426 16.4085735,27.0944723 17.0554653,29.3466695" id="Path-25"></path>
                    <path d="M17.0554653,37.4447418 C24.1159598,44.5052363 22.2844391,40.6543784 24.1608418,48.0826843" id="Path-26"></path>
                </g>
                <path d="" id="Path-27" stroke="#979797"></path>
                <path d="M171.861208,376.896052 C169.492749,372.935703 165.655806,369.540931 164.755832,365.015004 C163.205242,357.217167 161.985197,348.615602 164.755832,341.163476 C168.202211,331.893812 180.063511,333.237754 181.054823,334.008912 C192.762825,343.116762 203.246748,372.7438 182.646713,376.547267 C177.693911,377.461723 172.573683,376.547267 167.537168,376.547267" id="Path-28" stroke="#CEA698"></path>
                <path d="" id="Path-29" stroke="#979797"></path>
                <path d="" id="Path-30" stroke="#979797"></path>
                <path d="M80.3319746,142.982049 C60.8888546,123.49875 54.7704483,120.469307 42.2160341,97.6623569 C35.9507541,86.2805492 25.8782997,65.0714759 44.2058972,80.5718918 C44.7885965,81.064705 44.9181957,82.5874288 44.2058972,82.8613524 L37.0513331,87.6280807 C33.0715557,89.1585552 27.8634434,93.1179467 24.5666186,90.4138891 C18.74937,85.6425784 29.409952,66.4161818 30.5317365,63.8749277" id="Path-31" stroke="#CEA698"></path>
                <path d="M46.8307279,61.9342522 C37.7387483,60.0993629 -2.24977021,32.0964749 23.819861,30.1322146 C29.0901046,29.7351192 92.6049912,23.8138201 105.314818,38.4806966 C106.138068,39.4307098 106.330771,40.8135537 106.508736,42.0579787 C106.733889,43.6323606 107.462976,45.5568587 106.508736,46.8291787 C103.637189,50.6579084 100.122451,54.3618493 95.7768899,56.367107 C84.3613911,61.6347858 72.3716389,66.0828979 59.995126,68.2928711 C49.8206917,70.1096371 39.3243977,68.2928711 28.9890336,68.2928711" id="Path-32" stroke="#CEA698"></path>
            </g>
        </g>
    </g>
</svg>