<?xml version="1.0" encoding="UTF-8" standalone="no"?>
<svg width="318px" height="431px" viewBox="0 0 318 431" version="1.1" xmlns="http://www.w3.org/2000/svg" xmlns:xlink="http://www.w3.org/1999/xlink">
    <!-- Generator: sketchtool 39.1 (31720) - http://www.bohemiancoding.com/sketch -->
    <title>52D0F278-CF40-40A3-8770-99817160933D</title>
    <desc>Created with sketchtool.</desc>
    <defs></defs>
    <g id="mockup_element" stroke="none" stroke-width="1" fill="none" fill-rule="evenodd">
        <g id="AAM_mockup_Step1" transform="translate(-400.000000, -1048.000000)">
            <g id="img_step1_TopRightPaper" transform="translate(400.000000, 1048.000000)">
                <rect id="Rectangle-3" fill="#FFF5EA" x="-3.75166564e-12" y="5.68434189e-13" width="318" height="431"></rect>
                <g id="Group-7" transform="translate(213.000000, 382.000000)" stroke="#CEA697">
                    <path d="M2,5.1159077e-13 L8,13" id="Path-15"></path>
                    <path d="M10,2 C2.60863923,7.9632304 6.0935569,5.85274332 1.07558407e-12,9" id="Path-16"></path>
                    <path d="M17,6 C19.3333333,10.3333333 21.6666667,14.6666667 24,19" id="Path-17"></path>
                    <path d="M24,10 L15,17" id="Path-18"></path>
                    <path d="M1,23.1746794 C8.4993316,16.8644778 14.474088,20.7374947 19,28" id="Path-19"></path>
                </g>
                <circle id="Oval" fill="#EDEDED" cx="86" cy="116" r="39"></circle>
                <circle id="Oval-Copy" fill="#EDEDED" cx="231" cy="116" r="39"></circle>
                <g id="Group-2" transform="translate(30.000000, 213.000000)">
                    <rect id="Rectangle-4" fill="#E8EFF2" x="1.08002496e-12" y="23" width="116" height="7"></rect>
                    <rect id="Rectangle-4-Copy-8" fill="#D7D7D7" x="0" y="0" width="116" height="7"></rect>
                    <rect id="Rectangle-4-Copy" fill="#E8EFF2" x="1.30739863e-12" y="36" width="116" height="7"></rect>
                    <rect id="Rectangle-4-Copy-2" fill="#E9F0F3" x="1.13686838e-13" y="49" width="116" height="7"></rect>
                    <rect id="Rectangle-4-Copy-3" fill="#E9F0F3" x="2.21689334e-12" y="62" width="116" height="7"></rect>
                    <rect id="Rectangle-4-Copy-4" fill="#E9F0F3" x="1.59161573e-12" y="75" width="116" height="7"></rect>
                    <rect id="Rectangle-4-Copy-5" fill="#E9F0F3" x="9.66338121e-13" y="88" width="116" height="7"></rect>
                    <rect id="Rectangle-4-Copy-6" fill="#E9F0F3" x="4.54747351e-13" y="101" width="116" height="7"></rect>
                    <rect id="Rectangle-4-Copy-7" fill="#E9F0F3" x="5.68434189e-13" y="114" width="116" height="7"></rect>
                    <rect id="Rectangle-4" fill="#DDE5E8" x="142" y="23" width="116" height="7"></rect>
                    <rect id="Rectangle-4-Copy-9" fill="#D7D7D7" x="142" y="1.70530257e-13" width="116" height="7"></rect>
                    <rect id="Rectangle-4-Copy" fill="#DDE5E8" x="142" y="36" width="116" height="7"></rect>
                    <rect id="Rectangle-4-Copy-2" fill="#DDE5E8" x="142" y="49" width="116" height="7"></rect>
                    <rect id="Rectangle-4-Copy-3" fill="#DDE5E8" x="142" y="62" width="116" height="7"></rect>
                    <rect id="Rectangle-4-Copy-4" fill="#DDE5E8" x="142" y="75" width="116" height="7"></rect>
                    <rect id="Rectangle-4-Copy-5" fill="#DDE5E8" x="142" y="88" width="116" height="7"></rect>
                    <rect id="Rectangle-4-Copy-6" fill="#DDE5E8" x="142" y="101" width="116" height="7"></rect>
                    <rect id="Rectangle-4-Copy-7" fill="#DDE5E8" x="142" y="114" width="116" height="7"></rect>
                </g>
                <path d="M106.816132,384.834894 C106.055922,382.207929 103.486109,377.150849 105.728151,374.027962 C107.112925,372.099144 116.87721,362.030418 121.184771,364.401672 C125.662722,366.866724 114.963306,386.059055 108.781786,381.617802 C103.144722,377.567724 110.882094,364.462692 116.187346,369.492799 C119.290518,372.435033 119.893704,378.10058 119.796944,381.988444 C119.786504,382.407936 119.432022,383.19433 119.056701,383.006669 C113.121866,380.039252 100.229758,363.829764 102.580814,361.624978 C103.326611,360.92558 104.742989,360.848187 105.635491,361.346996 C134.509425,377.484303 93.3916294,385.967136 79.1626717,374.213283 C78.4600298,373.632865 78.0238781,372.625479 78.0528268,371.714571 C78.4614928,358.855367 121.055425,357.196983 111.28154,379.859333 C110.041135,382.735414 108.052362,385.264023 106.005092,387.634493 C87.9096185,408.586677 89.4273753,375.573099 110.632916,382.358045 C113.279317,383.204791 115.998312,384.454797 117.853154,386.523607 C118.718211,387.488455 118.43268,389.252135 117.853154,390.411188 C113.861659,398.394178 81.8196237,385.528311 87.7707366,373.009737 C91.4281103,365.3162 112.729723,377.088772 115.446061,381.525141 C119.156838,387.585644 117.584034,391.607678 116.556947,392.076996 C107.844105,396.05825 98.9717687,380.780424 107.6709,380.322636 C111.834459,380.10353 116.083238,380.03504 120.166545,380.877558 C122.078916,381.272142 123.62725,382.728845 125.165012,383.932234 C125.792141,384.423 126.316263,385.115972 126.55388,385.876024 C126.80241,386.670985 126.817267,387.584575 126.55388,388.374737 C125.692571,390.958663 123.448463,393.355728 120.99945,394.484089 C103.313646,402.632665 118.726056,371.972792 125.165012,380.784898 C129.884619,387.243969 115.938836,400.709648 109.800012,399.481515 C104.682489,398.457703 113.140934,386.339079 113.780253,388.096755 C116.092196,394.452975 111.511627,402.084148 105.72711,404.757963 C103.88552,405.609213 100.834049,407.37346 99.7114594,405.683527 C97.0497695,401.676652 97.9499414,396.224101 96.9347651,391.522074 C96.5054943,389.533805 98.2623108,395.528341 97.9529904,397.538766 C97.5556412,400.121333 96.718249,402.883029 94.8983143,404.757963 C93.3890353,406.312853 90.9353127,406.681767 88.788962,406.979735 C87.4762111,407.161978 86.1144508,406.679634 84.9013816,406.145789 C83.7494127,405.638833 82.6588606,404.887415 81.8477466,403.925059 C67.4711421,386.867745 97.3165303,385.504849 106.930657,390.503848 C114.648512,394.516855 105.38294,405.457923 100.637024,400.870382 C91.3323189,391.876183 112.531088,388.432256 112.021784,405.220225 C111.990024,406.267096 110.726786,406.954105 109.800012,407.441996 C108.88421,407.924111 107.652156,408.496762 106.745335,407.99796 C98.6889505,403.566495 106.256484,391.8274 117.297191,403.277475 C119.433564,405.493062 114.411619,408.583903 113.687592,408.830864 C98.4457484,414.029756 97.6373292,403.353556 108.412185,399.852157 C110.570185,399.150893 112.815755,398.659141 115.07646,398.46433 C118.21183,398.194148 121.410872,397.961491 124.517429,398.46433 C125.043094,398.549417 125.254131,399.767036 124.795411,400.037478 C114.261096,406.248075 116.766921,376.278784 121.184771,372.176833 C122.549827,370.909385 124.387581,370.173521 126.183237,369.67812 C127.168818,369.406209 128.477926,369.271157 129.237913,369.955061 C130.277051,370.890167 130.533834,372.472467 130.811061,373.842641 C131.326128,376.388317 130.763495,379.138799 129.423235,381.340861 C127.564618,384.394586 119.390958,390.643326 118.593398,389.114981 C117.479276,386.980016 118.083487,384.292771 118.315416,381.895784 C118.471557,380.282066 120.627007,379.982592 121.648074,380.784898 C130.698232,387.896082 127.510277,402.973276 114.705817,401.055704 C110.767349,400.465886 106.793795,399.802809 103.043076,398.46433 C98.8715317,396.975676 94.8271017,395.031268 91.1033945,392.63296 C89.2866329,391.462848 87.8990512,389.682833 86.6598506,387.912475 C85.2828123,385.945199 84.1069209,383.796717 83.3282338,381.525141 C80.1477229,372.246994 94.7507114,373.137349 97.7676693,383.191991 C98.7257829,386.385104 102.115502,390.692899 99.7114594,393.002561 C98.8367356,393.842944 86.4339779,383.412087 90.547431,378.841107 C91.7497654,377.505041 93.3242417,376.459247 94.9909749,375.786431 C96.7643167,375.07058 98.7248432,374.740858 100.637024,374.768206 C101.099794,374.774824 101.192294,375.508796 101.469928,375.879092" id="Path-4" stroke="#CEA698"></path>
                <path d="" id="Path-5" stroke="#979797"></path>
                <path d="M71.528212,360.843829 C60.8618556,361.986449 45.7466171,364.296847 36.129995,360.428482 C24.9270122,355.92199 16.7973657,339.156932 23.358843,328.221882 C34.3729225,309.866334 52.8374659,299.876811 73.3332556,295.738904 C92.0490712,291.960357 124.387051,300.268942 109.980638,326.833747 C96.0272354,352.56322 76.9652126,371.537651 49.5944337,381.250503" id="Path-6" stroke="#F29C9C" stroke-width="2" transform="translate(67.291850, 338.062876) rotate(318.000000) translate(-67.291850, -338.062876) "></path>
                <path d="M247.265856,196.982784 C251.831982,183.286546 276.171774,140.492604 295.991103,147.842189 C298.068725,148.612631 298.779327,151.494111 299.184282,153.672667 C300.149651,158.866116 301.604712,164.460016 300.016538,169.498028 C292.369442,193.756178 268.634427,215.561441 244.906495,223.358905 C223.050739,230.541136 221.821565,205.911919 225.748986,191.291275 C230.834746,172.358474 243.644719,167.842553 260.158801,159.918493" id="Path-7" stroke="#FF7777" stroke-width="2"></path>
                <g id="Group-3" transform="translate(122.000000, 132.000000)" stroke="#5672BC">
                    <path d="M0.9693726,9.26371056 C5.13377686,6.90382943 8.91494233,3.67746744 13.4625854,2.18406717 C18.3867407,0.567024049 23.688168,0.10108431 28.8710373,0.10108431 C60.149756,0.10108431 19.7728917,27.8337709 19.154094,28.8365668 C17.7884246,31.0497095 22.1256581,33.3212202 22.469066,35.8990341" id="Path-8"></path>
                    <path d="M21.9131875,45.6175389 C24.0882963,48.3938084 26.2634051,51.1700779 28.4385139,53.9463474" id="Path-9"></path>
                </g>
                <g id="Group-5" transform="translate(62.000000, 40.000000)" stroke="#FF7777">
                    <path d="M0.818801223,0.421964567 C20.3200606,19.6724343 39.8213201,38.9229041 59.3225795,58.1733738" id="Path-13"></path>
                    <path d="M49.0467453,1.36842298 C38.1701307,37.2882638 25.5770003,71.2981199 10.078392,105.481029" id="Path-14"></path>
                </g>
                <path d="" id="Path-11" stroke="#979797"></path>
                <path d="" id="Path-12" stroke="#979797"></path>
                <path d="" id="Path-21" stroke="#979797"></path>
                <g id="Group-10" transform="translate(180.000000, 166.000000)" stroke="#F19C9C" stroke-width="2">
                    <path d="M0,57 C53.4183497,62.0903166 23.2095539,57.3263364 90,75" id="Path-20"></path>
                    <path d="M21,109 C31.1644538,70.1925764 45.4381887,36.0177289 63,3.97903932e-13" id="Path-22"></path>
                </g>
            </g>
        </g>
    </g>
</svg>